# xmcd
#
# Track frame offsets:
#	179
#	14751
#	33013
#	46508
#	61241
#	73284
#	84319
#	98174
#	110766
#	127559
#
# Disc length: 1836 seconds
# Revision: 2
# Processed by: cddbd v1.5.2PL0 Copyright (c) Steve Scherf et al.
# Submitted via: dBpowerAMP V12.0
#
DISCID=76072a0a
DTITLE=Johnny Cash - Complete Columbia Album Collection, Disc 41 [Look at Them Beans]
DYEAR=1975
DGENRE=Country
TTITLE0=Texas - 1947
TTITLE1=What Have You Got Planned Tonight, Diana
TTITLE2=Look at Them Beans
TTITLE3=No Charge
TTITLE4=I Hardly Ever Sing Beer Drinking Songs
TTITLE5=Down the Road I Go
TTITLE6=I Never Met a Man Like You Before
TTITLE7=All Around Cowboy
TTITLE8=Gone
TTITLE9=Down at Drippin' Springs
EXTD=
EXTT0=
EXTT1=
EXTT2=
EXTT3=
EXTT4=
EXTT5=
EXTT6=
EXTT7=
EXTT8=
EXTT9=
PLAYORDER=
